<svg xmlns="http://www.w3.org/2000/svg" viewBox="0 0 25.62 25.62"><defs><style>.cls-1{fill:#231815;}</style></defs><g id="레이어_2" data-name="레이어 2"><g id="레이어_1-2" data-name="레이어 1"><path class="cls-1" d="M12.137,10.212l.241,4.245c0,.017-.009.032-.009.049a.654.654,0,0,0,.017.086l0,.046H12.4a.58.58,0,0,0,1.136,0h.009l0-.065a.528.528,0,0,0,.013-.067c0-.014-.006-.025-.007-.038l.241-4.256.061-1.667h-.005V8.54a.883.883,0,0,0-1.766,0v.005h-.007Z"/><path class="cls-1" d="M12.964,17.829a1.153,1.153,0,1,0-1.092-1.152A1.112,1.112,0,0,0,12.964,17.829Z"/><path class="cls-1" d="M15.193.229A12.32,12.32,0,0,0,12.81,0a12.81,12.81,0,0,0,0,25.62,12.378,12.378,0,0,0,2.366-.225,12.283,12.283,0,0,0,3.462-1.176,1,1,0,0,0-.916-1.778,10.3,10.3,0,0,1-2.915.988,10.362,10.362,0,0,1-2,.191A10.81,10.81,0,0,1,12.81,2a10.336,10.336,0,0,1,2.006.193,10.8,10.8,0,0,1,5.638,18.259c-.146.146-.3.293-.468.44a1,1,0,0,0,1.326,1.5c.2-.174.38-.347.555-.522A12.8,12.8,0,0,0,15.193.229Z"/></g></g></svg>