<svg xmlns="http://www.w3.org/2000/svg" viewBox="0 0 30 26.62"><defs><style>.cls-1{fill:#231916;}</style></defs><g id="레이어_2" data-name="레이어 2"><g id="레이어_1-2" data-name="레이어 1"><path class="cls-1" d="M29,26.62H1a1,1,0,0,1-1-1V18.765a1,1,0,0,1,2,0V24.62H28V18.765a1,1,0,0,1,2,0V25.62A1,1,0,0,1,29,26.62Z"/><path class="cls-1" d="M15,23.241a1,1,0,0,1-.716-.3L6.59,15.053a1,1,0,1,1,1.431-1.4L15,20.805l6.886-7.145a1,1,0,1,1,1.439,1.389l-7.6,7.887a1,1,0,0,1-.717.3Z"/><path class="cls-1" d="M15,18.754a1,1,0,0,1-1-1V1a1,1,0,0,1,2,0V17.754A1,1,0,0,1,15,18.754Z"/></g></g></svg>