<svg xmlns="http://www.w3.org/2000/svg" viewBox="0 0 31.755 30.339"><defs><style>.cls-1{fill:#070606;}</style></defs><g id="레이어_2" data-name="레이어 2"><g id="레이어_1-2" data-name="레이어 1"><path class="cls-1" d="M24.8,30.338a1.421,1.421,0,0,1-.654-.159l-8.277-4.352L7.6,30.175a1.422,1.422,0,0,1-2.061-1.5L7.12,19.462.43,12.946a1.426,1.426,0,0,1-.358-1.467,1.409,1.409,0,0,1,1.14-.958l9.253-1.347L14.6.8A1.4,1.4,0,0,1,15.856,0a1.425,1.425,0,0,1,1.3.792l4.138,8.382,9.243,1.346a1.423,1.423,0,0,1,.8,2.417l-5.229,5.1a1,1,0,0,1-1.4-1.432l4.382-4.273L20.7,11.11a1.428,1.428,0,0,1-1.064-.771l-3.757-7.61-3.753,7.6a1.425,1.425,0,0,1-1.075.777L2.664,12.33l6.071,5.914a1.44,1.44,0,0,1,.411,1.238L7.71,27.859l7.5-3.944a1.372,1.372,0,0,1,1.358.02l7.474,3.929-1.382-8a1,1,0,0,1,1.971-.34l1.58,9.15a1.443,1.443,0,0,1-.584,1.4A1.422,1.422,0,0,1,24.8,30.338Zm-9.2-4.653.034.018Zm.578-.02-.046.023C16.15,25.681,16.165,25.673,16.18,25.665ZM30.243,12.5h0ZM10.763,9.13h0ZM16.4,1.665l-.009.02Z"/></g></g></svg>