<svg xmlns="http://www.w3.org/2000/svg" viewBox="0 0 25.62 25.62"><defs><style>.cls-1{fill:#040000;}</style></defs><g id="레이어_2" data-name="레이어 2"><g id="레이어_1-2" data-name="레이어 1"><path class="cls-1" d="M12.81,25.62A12.81,12.81,0,0,1,12.81,0a12.292,12.292,0,0,1,2.384.229,12.8,12.8,0,0,1,6.673,21.637q-.26.261-.553.521a1,1,0,1,1-1.329-1.494c.165-.148.321-.294.468-.441A10.8,10.8,0,0,0,14.817,2.193,10.316,10.316,0,0,0,12.81,2a10.81,10.81,0,0,0,0,21.62,10.321,10.321,0,0,0,2-.191,10.285,10.285,0,0,0,2.916-.988,1,1,0,0,1,.916,1.778,12.255,12.255,0,0,1-3.463,1.175A12.233,12.233,0,0,1,12.81,25.62Z"/><path class="cls-1" d="M20.025,13.81H5.6a1,1,0,0,1,0-2h14.43a1,1,0,0,1,0,2Z"/><path class="cls-1" d="M12.81,21.024a1,1,0,0,1-1-1V5.6a1,1,0,0,1,2,0V20.024A1,1,0,0,1,12.81,21.024Z"/></g></g></svg>