<svg width="22" height="21" viewBox="0 0 22 21" fill="none" xmlns="http://www.w3.org/2000/svg">
<path d="M16.6005 21.0029C16.4494 21.003 16.3006 20.9668 16.1664 20.8974L10.6729 18.0089L5.18467 20.8947C5.02878 20.9763 4.85319 21.0127 4.67772 20.9998C4.50225 20.9869 4.33388 20.9252 4.19162 20.8217C4.04936 20.7181 3.93888 20.5769 3.87264 20.4139C3.8064 20.2509 3.78705 20.0726 3.81676 19.8992L4.86608 13.7844L0.425869 9.45969C0.299095 9.33591 0.209614 9.17903 0.167608 9.0069C0.125602 8.83476 0.132757 8.6543 0.188261 8.48603C0.242411 8.31996 0.341991 8.17238 0.475718 8.06C0.609446 7.94762 0.771975 7.87494 0.94489 7.8502L7.08619 6.95618L9.83063 1.39828C9.90556 1.24032 10.0235 1.10669 10.171 1.01277C10.3184 0.918844 10.4894 0.868428 10.6642 0.867313C10.8431 0.8644 11.019 0.912237 11.1717 1.00528C11.3244 1.09832 11.4477 1.23275 11.5271 1.39297L14.2735 6.95618L20.4082 7.84954C20.5818 7.87466 20.745 7.94765 20.8795 8.06033C21.014 8.17301 21.1144 8.32093 21.1696 8.48749C21.2247 8.65405 21.2323 8.83268 21.1916 9.00334C21.1509 9.17401 21.0635 9.32996 20.9391 9.45372L17.4686 12.8386C17.3426 12.9619 17.1727 13.03 16.9965 13.028C16.8202 13.026 16.652 12.9541 16.5288 12.828C16.4056 12.702 16.3375 12.5322 16.3395 12.3559C16.3414 12.1797 16.4134 12.0114 16.5394 11.8882L19.4478 9.05218L13.8793 8.24112C13.7292 8.2186 13.5867 8.16036 13.4638 8.07131C13.3409 7.98226 13.2412 7.86501 13.1731 7.7294L10.6795 2.67858L8.18861 7.72277C8.12041 7.86013 8.01983 7.97885 7.89553 8.06869C7.77123 8.15853 7.62695 8.2168 7.47513 8.23847L1.9086 9.05085L5.93797 12.976C6.0449 13.0819 6.12534 13.2114 6.17274 13.3542C6.22014 13.497 6.23317 13.6489 6.21076 13.7977L5.25767 19.3576L10.2355 16.7399C10.374 16.6637 10.5299 16.6249 10.6879 16.6272C10.8459 16.6295 11.0006 16.673 11.1368 16.7532L16.0974 19.3609L15.1801 14.0512C15.1502 13.8778 15.1904 13.6995 15.2919 13.5557C15.3934 13.4119 15.5479 13.3142 15.7214 13.2843C15.8949 13.2544 16.0731 13.2946 16.2169 13.3961C16.3608 13.4976 16.4584 13.6521 16.4883 13.8256L17.537 19.8985C17.565 20.0741 17.5436 20.254 17.4751 20.4182C17.4066 20.5823 17.2939 20.7241 17.1494 20.8277C16.9891 20.9419 16.7972 21.0032 16.6005 21.0029ZM10.4943 17.9147L10.5169 17.9266L10.4943 17.9147ZM10.878 17.9014L10.8474 17.9167C10.8594 17.912 10.8693 17.9067 10.8793 17.9014H10.878ZM11.0253 1.97239L11.0193 1.98566L11.0253 1.97239Z" fill="white"/>
<path d="M7.6087 7.75758L1 8.62121L5.4058 14.0909L4.57971 21L10.3623 17.8333L16.6957 21L15.5942 14.0909L20 8.62121L13.6667 7.75758L10.3623 2L7.6087 7.75758Z" fill="white" fill-opacity="0.69"/>
</svg>
