<svg xmlns="http://www.w3.org/2000/svg" viewBox="0 0 32.04 32.64"><defs><style>.cls-1{fill:#231815;}.cls-2{fill:#050101;}</style></defs><g id="레이어_2" data-name="레이어 2"><g id="레이어_1-2" data-name="레이어 1"><rect class="cls-1" x="1.193" y="11.462" width="29.769" height="2"/><path class="cls-2" d="M5.673,6.088a1,1,0,0,1-1-1V1a1,1,0,0,1,2,0V5.088A1,1,0,0,1,5.673,6.088Z"/><path class="cls-2" d="M8.511,19.865a1,1,0,0,1-1-1V17.571a1,1,0,0,1,2,0v1.294A1,1,0,0,1,8.511,19.865Z"/><path class="cls-2" d="M16.078,19.865a1,1,0,0,1-1-1V17.571a1,1,0,0,1,2,0v1.294A1,1,0,0,1,16.078,19.865Z"/><path class="cls-2" d="M23.645,19.865a1,1,0,0,1-1-1V17.571a1,1,0,0,1,2,0v1.294A1,1,0,0,1,23.645,19.865Z"/><path class="cls-2" d="M8.511,26.991a1,1,0,0,1-1-1V24.7a1,1,0,0,1,2,0v1.294A1,1,0,0,1,8.511,26.991Z"/><path class="cls-2" d="M16.078,26.991a1,1,0,0,1-1-1V24.7a1,1,0,0,1,2,0v1.294A1,1,0,0,1,16.078,26.991Z"/><path class="cls-2" d="M23.645,26.991a1,1,0,0,1-1-1V24.7a1,1,0,0,1,2,0v1.294A1,1,0,0,1,23.645,26.991Z"/><path class="cls-2" d="M26.482,6.088a1,1,0,0,1-1-1V1a1,1,0,0,1,2,0V5.088A1,1,0,0,1,26.482,6.088Z"/><path class="cls-1" d="M27.21,32.64H3.38A3.379,3.379,0,0,1,0,29.27V8.22A3.384,3.384,0,0,1,3.38,4.84H28.67a3.379,3.379,0,0,1,3.37,3.38V29.27a3.367,3.367,0,0,1-1.123,2.5,1,1,0,1,1-1.334-1.49,1.369,1.369,0,0,0,.457-1.015V8.22a1.376,1.376,0,0,0-1.37-1.38H3.38A1.381,1.381,0,0,0,2,8.22V29.27a1.377,1.377,0,0,0,1.38,1.37H27.21a1,1,0,0,1,0,2Z"/></g></g></svg>