<?xml version="1.0" encoding="utf-8"?>
<!-- Generator: Adobe Illustrator 23.0.3, SVG Export Plug-In . SVG Version: 6.00 Build 0)  -->
<svg version="1.1" id="레이어_1" xmlns="http://www.w3.org/2000/svg" xmlns:xlink="http://www.w3.org/1999/xlink" x="0px"
	 y="0px" viewBox="0 0 1326.6 1326.6" style="enable-background:new 0 0 1326.6 1326.6;" xml:space="preserve">
<path d="M1277.8,1224.3L931.2,909.4c92-97.1,142.9-223.2,142.9-357.4c0-250.3-178.3-465.3-423.5-511c-31.3-6.2-63.8-9.3-96.8-9.3
	c-286.9,0-520.4,233.4-520.4,520.3s233.4,520.4,520.4,520.4c32.9,0,65.4-3.1,96.1-9.2c48.7-8.7,96-24.8,140.7-47.8
	c20-10.2,27.8-34.7,17.5-54.7c-10.2-19.9-34.7-27.8-54.7-17.5c-37.4,19.2-77,32.7-118.4,40.1c-26.2,5.2-53.5,7.8-81.1,7.8
	c-242.1,0-439.1-197-439.1-439.1c0-242.1,197-439.1,439.1-439.1c27.7,0,55,2.6,81.5,7.8c207.2,38.7,357.6,220,357.6,431.2
	c0,117.2-45.7,227.5-128.6,310.5c-6,6-12.3,11.9-18.9,17.8c-0.6,0.5-0.8,1.2-1.3,1.7c-0.6,0.6-1.3,0.8-1.9,1.4
	c-1.4,1.6-2,3.5-3.1,5.2c-1.5,2.2-3,4.3-4,6.8c-1,2.5-1.4,4.9-1.9,7.5c-0.5,2.6-1.1,5-1.1,7.6s0.5,5.1,1,7.6c0.5,2.5,0.9,5,1.8,7.5
	c1,2.6,2.6,4.8,4.2,7.2c1.1,1.6,1.5,3.4,2.9,4.9c0.5,0.6,1.2,0.8,1.7,1.3c0.6,0.6,0.8,1.3,1.4,1.9l378.2,343.6
	c7.8,7.1,17.6,10.6,27.3,10.6c11,0,22.1-4.5,30.1-13.3C1295.6,1265.1,1294.4,1239.4,1277.8,1224.3z"/>
</svg>
