<svg width="24" height="24" viewBox="0 0 24 24" fill="none" xmlns="http://www.w3.org/2000/svg">
<g clip-path="url(#clip0_4619_12782)">
<path d="M12 24C8.8174 24 5.76515 22.7357 3.51472 20.4853C1.26428 18.2349 0 15.1826 0 12C0 8.81742 1.26428 5.76517 3.51472 3.51474C5.76515 1.2643 8.8174 1.88936e-05 12 1.88936e-05C12.7496 -0.00133907 13.4976 0.0705085 14.2333 0.214539C16.378 0.618721 18.3717 1.60059 19.9995 3.05431C21.6273 4.50803 22.8275 6.37847 23.4707 8.464C24.1139 10.5495 24.1757 12.7711 23.6494 14.8891C23.1232 17.0072 22.0288 18.9414 20.4843 20.4834C20.3219 20.6464 20.1499 20.8088 19.9681 20.9705C19.877 21.0559 19.7696 21.1222 19.6524 21.1656C19.5352 21.2089 19.4106 21.2283 19.2858 21.2227C19.1609 21.2171 19.0385 21.1866 18.9257 21.133C18.8128 21.0794 18.7118 21.0037 18.6287 20.9105C18.5455 20.8172 18.4818 20.7083 18.4414 20.5901C18.4009 20.4719 18.3845 20.3468 18.3932 20.2221C18.4018 20.0975 18.4353 19.9759 18.4916 19.8643C18.548 19.7528 18.6261 19.6537 18.7213 19.5729C18.8756 19.4342 19.0217 19.2962 19.1597 19.1588C20.4637 17.8575 21.3876 16.2249 21.8317 14.437C22.2759 12.6492 22.2235 10.774 21.6802 9.01377C21.1368 7.25353 20.1232 5.67504 18.7486 4.4486C17.374 3.22216 15.6906 2.39431 13.8801 2.05435C13.2608 1.93284 12.6311 1.87229 12 1.87356C9.31429 1.87356 6.73859 2.94045 4.83951 4.83953C2.94043 6.73861 1.87354 9.31431 1.87354 12C1.87354 14.6857 2.94043 17.2614 4.83951 19.1605C6.73859 21.0596 9.31429 22.1265 12 22.1265C12.6288 22.1279 13.2563 22.068 13.8735 21.9476C14.8256 21.7776 15.7467 21.4656 16.6061 21.022C16.8263 20.914 17.0802 20.8967 17.3131 20.9738C17.5459 21.0509 17.7393 21.2163 17.8515 21.4344C17.9638 21.6526 17.986 21.906 17.9134 22.1403C17.8408 22.3747 17.6791 22.5712 17.4632 22.6876C16.443 23.2147 15.3495 23.5857 14.2192 23.7883C13.4881 23.9308 12.7449 24.0017 12 24Z" fill="#0642FF"/>
<path d="M12.0001 17.9993C11.7517 17.9993 11.5134 17.9005 11.3378 17.7248L6.27925 12.6663C6.19178 12.5796 6.12225 12.4765 6.07464 12.3629C6.02702 12.2493 6.00224 12.1274 6.00172 12.0042C6.00066 11.7555 6.09847 11.5165 6.27363 11.3398C6.44878 11.1632 6.68693 11.0634 6.93569 11.0623C7.18445 11.0613 7.42344 11.1591 7.60009 11.3342L11.7219 15.456L16.2184 5.9759C16.2686 5.86091 16.3414 5.75717 16.4325 5.67086C16.5236 5.58455 16.6311 5.51741 16.7486 5.47345C16.8661 5.42948 16.9913 5.40957 17.1167 5.41491C17.242 5.42025 17.3651 5.45072 17.4784 5.50451C17.5918 5.55831 17.6932 5.63434 17.7766 5.72808C17.86 5.82182 17.9238 5.93137 17.964 6.05021C18.0043 6.16906 18.0203 6.29479 18.011 6.41993C18.0018 6.54508 17.9675 6.66708 17.9102 6.77871L12.8516 17.4579C12.7758 17.6175 12.6564 17.7524 12.5073 17.847C12.3581 17.9417 12.1852 17.9922 12.0085 17.9928L12.0001 17.9993Z" fill="#0642FF"/>
</g>
<defs>
<clipPath id="clip0_4619_12782">
<rect width="24" height="24" fill="white"/>
</clipPath>
</defs>
</svg>
