<svg xmlns="http://www.w3.org/2000/svg" viewBox="0 0 27.451 27.451"><defs><style>.cls-1{fill:#050101;}</style></defs><g id="레이어_2" data-name="레이어 2"><g id="레이어_1-2" data-name="레이어 1"><path class="cls-1" d="M26.446,27.447a1,1,0,0,1-.707-.293L.293,1.707A1,1,0,0,1,1.707.293L27.153,25.74a1,1,0,0,1-.707,1.707Z"/><path class="cls-1" d="M1,27.451a1,1,0,0,1-.707-1.707L13.019,13.019a1,1,0,0,1,1.414,1.414L1.707,27.158A1,1,0,0,1,1,27.451Z"/><path class="cls-1" d="M15.9,12.548a1,1,0,0,1-.711-1.7L16.023,10,25.744.293a1,1,0,0,1,1.414,1.415L16.613,12.251A1,1,0,0,1,15.9,12.548Z"/></g></g></svg>