<svg xmlns="http://www.w3.org/2000/svg" viewBox="0 0 30.812 28.262"><defs><style>.cls-1{fill:#231815;}</style></defs><g id="레이어_2" data-name="레이어 2"><g id="레이어_1-2" data-name="레이어 1"><path class="cls-1" d="M29.812,28.262H26.123a1,1,0,0,1,0-2h3.689a1,1,0,0,1,0,2Z"/><path class="cls-1" d="M21.962,28.262h-5.64a1,1,0,0,1,0-2h5.64a1,1,0,1,1,0,2Z"/><path class="cls-1" d="M11.233,23.13a2.711,2.711,0,0,1-2.4-1.46L.351,5.311A3.136,3.136,0,0,1,1.69,1.089L3.114.351A3.136,3.136,0,0,1,7.336,1.69l8.48,16.359a2.706,2.706,0,0,1-1.155,3.643h0l-2.187,1.133A2.675,2.675,0,0,1,11.233,23.13ZM4.553,2a1.127,1.127,0,0,0-.519.127L2.61,2.864A1.133,1.133,0,0,0,2.127,4.39l8.479,16.36a.7.7,0,0,0,.947.3l2.186-1.133a.705.705,0,0,0,.3-.948L5.561,2.61A1.135,1.135,0,0,0,4.553,2ZM14.2,20.8h0Z"/><path class="cls-1" d="M16.014,27.981a1,1,0,0,1-.624-.219l-5.4-4.315a1,1,0,0,1,.164-1.669l4.993-2.589a1,1,0,0,1,1.458.828l.411,6.9a1,1,0,0,1-.538.947A.987.987,0,0,1,16.014,27.981Zm-3.577-5.137L14.882,24.8,14.7,21.673Z"/></g></g></svg>