<svg xmlns="http://www.w3.org/2000/svg" viewBox="0 0 28.584 36.479"><defs><style>.cls-1{fill:#231815;}</style></defs><g id="레이어_2" data-name="레이어 2"><g id="레이어_1-2" data-name="레이어 1"><path class="cls-1" d="M14.322,21.236a6.63,6.63,0,1,1,6.629-6.63A6.637,6.637,0,0,1,14.322,21.236Zm0-11.259a4.63,4.63,0,1,0,4.629,4.629A4.635,4.635,0,0,0,14.322,9.977Z"/><path class="cls-1" d="M14.324,36.479a1,1,0,0,1-.588-.19C-.824,25.714-.076,15.278.043,14.208a14.275,14.275,0,0,1,28.5-1.151,1,1,0,0,1-.914,1.079.988.988,0,0,1-1.079-.913,12.275,12.275,0,0,0-24.5,1.047,1.035,1.035,0,0,1-.009.136,14.355,14.355,0,0,0,1.115,6.245C4.43,24.012,7.408,29.06,14.324,34.236,24.7,26.46,26.359,18.92,26.586,16a1,1,0,0,1,2,.156c-.254,3.248-2.094,11.712-13.669,20.13A1,1,0,0,1,14.324,36.479Z"/></g></g></svg>