<svg xmlns="http://www.w3.org/2000/svg" viewBox="0 0 30 30.09"><defs><style>.cls-1{fill:#231815;}</style></defs><g id="레이어_2" data-name="레이어 2"><g id="레이어_1-2" data-name="레이어 1"><path class="cls-1" d="M15,16.566a8.283,8.283,0,1,1,8.283-8.283A8.292,8.292,0,0,1,15,16.566ZM15,2a6.283,6.283,0,1,0,6.283,6.283A6.29,6.29,0,0,0,15,2Z"/><path class="cls-1" d="M27.119,30.09H2.88A2.883,2.883,0,0,1,0,27.21a13.728,13.728,0,0,1,3.126-8.674,15.042,15.042,0,0,1,7.841-4.994,1,1,0,0,1,.506,1.936,13.02,13.02,0,0,0-6.8,4.322A11.571,11.571,0,0,0,2,27.21a.881.881,0,0,0,.88.88H27.119A.882.882,0,0,0,28,27.21,11.993,11.993,0,0,0,22.106,17a1,1,0,0,1,1.047-1.7A13.979,13.979,0,0,1,30,27.21,2.884,2.884,0,0,1,27.119,30.09Z"/></g></g></svg>