<svg xmlns="http://www.w3.org/2000/svg" viewBox="0 0 29.879 30"><defs><style>.cls-1{fill:#231916;}.cls-2{fill:#fff;}</style></defs><g id="레이어_2" data-name="레이어 2"><g id="레이어_1-2" data-name="레이어 1"><path class="cls-1" d="M24.149,6.811H5.851a1,1,0,1,1,0-2h18.3a1,1,0,0,1,0,2Z"/><path class="cls-1" d="M24.149,15.921H5.851a1,1,0,1,1,0-2h18.3a1,1,0,0,1,0,2Z"/><path class="cls-1" d="M24.149,24.96H5.851a1,1,0,1,1,0-2h18.3a1,1,0,0,1,0,2Z"/><path class="cls-1" d="M28.879,30H1a1,1,0,0,1-1-1V1A1,1,0,0,1,1,0H1L26.269.061a1,1,0,0,1,0,2h0L2,2V28H27.879V3.687a1,1,0,0,1,2,0V29A1,1,0,0,1,28.879,30Z"/><circle class="cls-2" cx="5.851" cy="5.811" r="1.602"/><path class="cls-1" d="M5.851,8.412a2.6,2.6,0,1,1,2.6-2.6A2.6,2.6,0,0,1,5.851,8.412Zm0-3.2a.6.6,0,1,0,.6.6A.6.6,0,0,0,5.851,5.209Z"/><circle class="cls-2" cx="14.939" cy="15" r="1.602"/><path class="cls-1" d="M14.939,17.6a2.6,2.6,0,1,1,2.6-2.6A2.605,2.605,0,0,1,14.939,17.6Zm0-3.205a.6.6,0,1,0,.6.6A.6.6,0,0,0,14.939,14.4Z"/><circle class="cls-2" cx="24.15" cy="23.96" r="1.602"/><path class="cls-1" d="M24.149,26.562a2.6,2.6,0,1,1,2.6-2.6A2.6,2.6,0,0,1,24.149,26.562Zm0-3.2a.6.6,0,1,0,.6.6A.6.6,0,0,0,24.149,23.358Z"/></g></g></svg>