<svg xmlns="http://www.w3.org/2000/svg" viewBox="0 0 37.15 33.972"><defs><style>.cls-1{fill:#231815;}</style></defs><g id="레이어_2" data-name="레이어 2"><g id="레이어_1-2" data-name="레이어 1"><path class="cls-1" d="M29.89,33.972H7.55A3.477,3.477,0,0,1,4,30.582v-16.1a3.337,3.337,0,0,1,1-2.367l11.42-11.1a3.684,3.684,0,0,1,5.121.057l11.5,11.73A3.307,3.307,0,0,1,34,15.122v15.46a3.13,3.13,0,0,1-.4,1.552,1,1,0,0,1-1.743-.984A1.137,1.137,0,0,0,32,30.582V15.122a1.315,1.315,0,0,0-.386-.921L20.116,2.473a1.675,1.675,0,0,0-2.3-.023L6.407,13.539A1.344,1.344,0,0,0,6,14.482v16.1a1.478,1.478,0,0,0,1.55,1.39H29.89a1,1,0,0,1,0,2Z"/><path class="cls-1" d="M36.149,18.9a1,1,0,0,1-.724-.31L20.076,2.48A1.535,1.535,0,0,0,18.975,2h-.02a1.535,1.535,0,0,0-1.093.453L1.707,18.609A1,1,0,0,1,.293,17.2L16.448,1.039A3.453,3.453,0,0,1,19,0a3.522,3.522,0,0,1,2.524,1.1L36.874,17.213a1,1,0,0,1-.725,1.689Z"/><path class="cls-1" d="M21.7,23.154a.486.486,0,0,1,.486.485V31.9H15.819V23.639a.485.485,0,0,1,.485-.485H21.7m0-2H16.3a2.485,2.485,0,0,0-2.485,2.485V33.9H24.181V23.639A2.485,2.485,0,0,0,21.7,21.154Z"/></g></g></svg>